# xmcd CD database file
#
# Track frame offsets:
#	150
#	13757
#	29550
#	43557
#	55560
#	68870
#	83060
#	96507
#	109427
#	122040
#	135337
#	150757
#	162197
#	176725
#	187077
#	200767
#	214232
#	227547
#	241252
#	252817
#	266217
#	286150
#
# Disc length: 4059 seconds
#
# Revision: 0
# Processed by: cddbd v1.5.2PL0 Copyright (c) Steve Scherf et al.
# Submitted via: CDex 2.19
#
DISCID=360fd916
DTITLE=Chu Berry - On Parade
DYEAR=2002
DGENRE=Jazz
TTITLE0=Sweethearts On Parade
TTITLE1=Krazy Kapers
TTITLE2=Rosetta
TTITLE3=When I Grow Too Old To Dream
TTITLE4=Christopher Columbus
TTITLE5=Blue Lou
TTITLE6=Knock Knock Who's There?
TTITLE7=Back Home Again In Indiana
TTITLE8=Maelstrom
TTITLE9=When You're Smiling
TTITLE10=Penguin Swing
TTITLE11=46 West 52
TTITLE12=Oh, Lady Be Good
TTITLE13=Limehouse Blues
TTITLE14=A Ghost Of A Chance
TTITLE15=Special Delivery
TTITLE16=Lonesome Nights
TTITLE17=Chuberry Jam
TTITLE18=Blowin' Up A Breeze
TTITLE19=Monday At Minton's
TTITLE20=Dream Girl
TTITLE21=Get Lost
EXTD=YEAR: 2002
EXTT0=
EXTT1=
EXTT2=
EXTT3=
EXTT4=
EXTT5=
EXTT6=
EXTT7=
EXTT8=
EXTT9=
EXTT10=
EXTT11=
EXTT12=
EXTT13=
EXTT14=
EXTT15=
EXTT16=
EXTT17=
EXTT18=
EXTT19=
EXTT20=
EXTT21=
PLAYORDER=
